<svg xmlns="http://www.w3.org/2000/svg" xmlns:xlink="http://www.w3.org/1999/xlink" width="500" zoomAndPan="magnify" viewBox="0 0 375 374.999991" height="500" preserveAspectRatio="xMidYMid meet" version="1.0"><defs><g/><clipPath id="b717af2a13"><path d="M 116 183 L 259 183 L 259 226.164062 L 116 226.164062 Z M 116 183 " clip-rule="nonzero"/></clipPath><clipPath id="c8d6c7108f"><path d="M 105.070312 205 L 270.070312 205 L 270.070312 226.164062 L 105.070312 226.164062 Z M 105.070312 205 " clip-rule="nonzero"/></clipPath><clipPath id="e0a427c3de"><path d="M 112 81.414062 L 263 81.414062 L 263 181 L 112 181 Z M 112 81.414062 " clip-rule="nonzero"/></clipPath><clipPath id="d4d084c347"><path d="M 181.59375 196.578125 L 193.59375 196.578125 L 193.59375 208.425781 L 181.59375 208.425781 Z M 181.59375 196.578125 " clip-rule="nonzero"/></clipPath><clipPath id="aa3340330e"><path d="M 181.59375 196.507812 L 193.59375 196.507812 L 193.59375 208.507812 L 181.59375 208.507812 Z M 181.59375 196.507812 " clip-rule="nonzero"/></clipPath></defs><path fill="#09588b" d="M 193.375 122.765625 L 214.300781 122.765625 L 214.300781 134.359375 L 193.375 134.359375 L 193.375 200.171875 C 191.347656 202.363281 189.414062 204.707031 187.570312 207.195312 C 185.730469 204.703125 183.796875 202.363281 181.769531 200.167969 L 181.769531 134.359375 L 160.84375 134.359375 L 160.84375 122.765625 L 181.769531 122.765625 L 181.769531 102.824219 L 193.375 102.824219 Z M 193.375 122.765625 " fill-opacity="1" fill-rule="evenodd"/><path fill="#84c225" d="M 181.769531 197.621094 C 153.039062 190.144531 172.339844 154.707031 181.769531 139.425781 C 171.1875 146.519531 162.351562 155.066406 157.796875 167.183594 C 155.878906 160.507812 150.265625 155.507812 141.691406 151.84375 C 145.308594 156.21875 147.558594 161.007812 148.527344 166.1875 C 151.777344 183.558594 159.203125 202.402344 181.769531 197.621094 Z M 155.960938 140.132812 C 159.757812 140.132812 162.839844 143.207031 162.839844 147 C 162.839844 150.792969 159.757812 153.867188 155.960938 153.867188 C 152.164062 153.867188 149.085938 150.792969 149.085938 147 C 149.085938 143.207031 152.164062 140.132812 155.960938 140.132812 Z M 155.960938 140.132812 " fill-opacity="1" fill-rule="evenodd"/><path fill="#84c225" d="M 193.371094 197.621094 C 222.105469 190.144531 202.804688 154.707031 193.371094 139.425781 C 203.953125 146.519531 212.792969 155.066406 217.34375 167.183594 C 219.261719 160.507812 224.875 155.507812 233.449219 151.84375 C 229.835938 156.21875 227.582031 161.007812 226.613281 166.1875 C 223.367188 183.558594 215.9375 202.402344 193.371094 197.621094 Z M 219.179688 140.132812 C 215.382812 140.132812 212.304688 143.207031 212.304688 147 C 212.304688 150.792969 215.382812 153.867188 219.179688 153.867188 C 222.976562 153.867188 226.058594 150.792969 226.058594 147 C 226.058594 143.207031 222.976562 140.132812 219.179688 140.132812 Z M 219.179688 140.132812 " fill-opacity="1" fill-rule="evenodd"/><g clip-path="url(#b717af2a13)"><path fill="#09588b" d="M 258.441406 183.933594 C 229.359375 186.515625 204.636719 197.117188 189.933594 226.152344 C 207.214844 209.871094 226.125 199.835938 247.945312 200.933594 Z M 185.207031 226.152344 C 170.503906 197.117188 145.785156 186.515625 116.703125 183.933594 L 127.199219 200.933594 C 149.015625 199.835938 167.929688 209.871094 185.207031 226.152344 Z M 185.207031 226.152344 " fill-opacity="1" fill-rule="evenodd"/></g><g clip-path="url(#c8d6c7108f)"><path fill="#84c225" d="M 270.070312 208.441406 C 243.523438 202.113281 216.859375 204.519531 189.933594 226.152344 C 212.949219 215.113281 235.238281 213.4375 256.738281 222.042969 Z M 185.210938 226.152344 C 158.285156 204.519531 131.617188 202.113281 105.070312 208.441406 L 118.40625 222.042969 C 139.90625 213.4375 162.195312 215.113281 185.210938 226.152344 Z M 185.210938 226.152344 " fill-opacity="1" fill-rule="evenodd"/></g><g clip-path="url(#e0a427c3de)"><path fill="#09588b" d="M 187.570312 81.425781 C 228.992188 81.425781 262.585938 114.980469 262.585938 156.355469 C 262.585938 164.980469 261.121094 173.265625 258.433594 180.976562 C 259.546875 175.933594 260.136719 170.699219 260.136719 165.324219 C 260.136719 125.300781 227.640625 92.839844 187.570312 92.839844 C 147.503906 92.839844 115.007812 125.300781 115.007812 165.324219 C 115.007812 170.699219 115.601562 175.933594 116.710938 180.976562 C 114.023438 173.265625 112.5625 164.980469 112.5625 156.355469 C 112.5625 114.980469 146.152344 81.425781 187.570312 81.425781 Z M 187.570312 81.425781 " fill-opacity="1" fill-rule="evenodd"/></g><g clip-path="url(#d4d084c347)"><path fill="#09588b" d="M 201.902344 198.3125 C 201.902344 197.851562 201.722656 197.410156 201.398438 197.085938 C 201.074219 196.761719 200.636719 196.578125 200.179688 196.578125 C 195.417969 196.578125 179.878906 196.578125 175.117188 196.578125 C 174.660156 196.578125 174.21875 196.761719 173.898438 197.085938 C 173.574219 197.410156 173.390625 197.851562 173.390625 198.3125 C 173.390625 200.460938 173.390625 204.542969 173.390625 206.691406 C 173.390625 207.152344 173.574219 207.59375 173.898438 207.917969 C 174.21875 208.242188 174.660156 208.425781 175.117188 208.425781 L 200.179688 208.425781 C 200.636719 208.425781 201.074219 208.242188 201.398438 207.917969 C 201.722656 207.59375 201.902344 207.152344 201.902344 206.691406 C 201.902344 204.542969 201.902344 200.460938 201.902344 198.3125 " fill-opacity="1" fill-rule="evenodd"/><path fill="#09588b" d="M 201.734375 198.3125 C 201.734375 197.898438 201.570312 197.5 201.277344 197.207031 C 200.988281 196.914062 200.589844 196.746094 200.179688 196.746094 C 195.417969 196.746094 179.878906 196.746094 175.117188 196.746094 C 174.703125 196.746094 174.308594 196.914062 174.015625 197.207031 C 173.722656 197.5 173.558594 197.898438 173.558594 198.3125 C 173.558594 200.460938 173.558594 204.542969 173.558594 206.691406 C 173.558594 207.109375 173.722656 207.503906 174.015625 207.800781 C 174.308594 208.09375 174.703125 208.257812 175.117188 208.257812 L 200.179688 208.257812 C 200.589844 208.257812 200.988281 208.09375 201.277344 207.800781 C 201.570312 207.503906 201.734375 207.109375 201.734375 206.691406 C 201.734375 204.542969 201.734375 200.460938 201.734375 198.3125 Z M 201.421875 198.3125 L 201.421875 206.691406 C 201.421875 207.023438 201.292969 207.34375 201.058594 207.578125 C 200.824219 207.8125 200.507812 207.945312 200.179688 207.945312 C 195.417969 207.945312 179.878906 207.945312 175.117188 207.945312 C 174.785156 207.945312 174.46875 207.8125 174.234375 207.578125 C 174.003906 207.34375 173.871094 207.023438 173.871094 206.691406 C 173.871094 204.542969 173.871094 200.460938 173.871094 198.3125 C 173.871094 197.980469 174.003906 197.664062 174.234375 197.425781 C 174.46875 197.191406 174.785156 197.058594 175.117188 197.058594 C 179.878906 197.058594 195.417969 197.058594 200.179688 197.058594 C 200.507812 197.058594 200.824219 197.191406 201.058594 197.425781 C 201.292969 197.664062 201.421875 197.980469 201.421875 198.3125 " fill-opacity="1" fill-rule="evenodd"/></g><g clip-path="url(#aa3340330e)"><path fill="#09588b" d="M 201.578125 198.3125 C 201.578125 197.9375 201.429688 197.582031 201.167969 197.316406 C 200.90625 197.050781 200.550781 196.90625 200.179688 196.90625 C 195.417969 196.90625 179.878906 196.90625 175.117188 196.90625 C 174.746094 196.90625 174.386719 197.050781 174.125 197.316406 C 173.863281 197.582031 173.714844 197.9375 173.714844 198.3125 C 173.714844 200.460938 173.714844 204.542969 173.714844 206.691406 C 173.714844 207.066406 173.863281 207.425781 174.125 207.6875 C 174.386719 207.953125 174.746094 208.101562 175.117188 208.101562 C 179.878906 208.101562 195.417969 208.101562 200.179688 208.101562 C 200.550781 208.101562 200.90625 207.953125 201.167969 207.6875 C 201.429688 207.425781 201.578125 207.066406 201.578125 206.691406 C 201.578125 204.542969 201.578125 200.460938 201.578125 198.3125 " fill-opacity="1" fill-rule="evenodd"/></g><g fill="#ffffff" fill-opacity="1"><g transform="translate(129.335914, 118.439234)"><g><path d="M 1.5 -1.65625 C 1.269531 -1.382812 1.035156 -1.175781 0.796875 -1.03125 C 0.554688 -0.882812 0.320312 -0.785156 0.09375 -0.734375 C -0.132812 -0.679688 -0.335938 -0.671875 -0.515625 -0.703125 L -0.671875 -1.5625 L -0.625 -1.625 C -0.34375 -1.582031 -0.0820312 -1.609375 0.15625 -1.703125 C 0.40625 -1.796875 0.632812 -1.960938 0.84375 -2.203125 C 1.007812 -2.398438 1.085938 -2.585938 1.078125 -2.765625 C 1.078125 -2.941406 1.003906 -3.09375 0.859375 -3.21875 C 0.765625 -3.300781 0.675781 -3.347656 0.59375 -3.359375 C 0.507812 -3.367188 0.410156 -3.351562 0.296875 -3.3125 C 0.179688 -3.28125 0.0546875 -3.210938 -0.078125 -3.109375 L -0.59375 -2.71875 C -0.957031 -2.4375 -1.300781 -2.289062 -1.625 -2.28125 C -1.957031 -2.269531 -2.265625 -2.382812 -2.546875 -2.625 C -2.773438 -2.8125 -2.925781 -3.023438 -3 -3.265625 C -3.070312 -3.515625 -3.0625 -3.78125 -2.96875 -4.0625 C -2.882812 -4.34375 -2.722656 -4.625 -2.484375 -4.90625 C -2.234375 -5.207031 -1.984375 -5.429688 -1.734375 -5.578125 C -1.484375 -5.722656 -1.21875 -5.796875 -0.9375 -5.796875 L -0.734375 -5 L -0.78125 -4.9375 C -0.988281 -4.914062 -1.175781 -4.859375 -1.34375 -4.765625 C -1.519531 -4.671875 -1.679688 -4.535156 -1.828125 -4.359375 C -2.003906 -4.160156 -2.101562 -3.972656 -2.125 -3.796875 C -2.15625 -3.617188 -2.101562 -3.476562 -1.96875 -3.375 C -1.851562 -3.269531 -1.726562 -3.226562 -1.59375 -3.25 C -1.457031 -3.269531 -1.285156 -3.359375 -1.078125 -3.515625 L -0.546875 -3.921875 C -0.160156 -4.210938 0.191406 -4.363281 0.515625 -4.375 C 0.847656 -4.382812 1.164062 -4.265625 1.46875 -4.015625 C 1.707031 -3.804688 1.875 -3.578125 1.96875 -3.328125 C 2.0625 -3.085938 2.066406 -2.820312 1.984375 -2.53125 C 1.910156 -2.25 1.75 -1.957031 1.5 -1.65625 Z M 1.5 -1.65625 "/></g></g></g><g fill="#ffffff" fill-opacity="1"><g transform="translate(132.025562, 115.250479)"><g><path d="M 1.328125 -3.84375 L -0.328125 -2.078125 C -0.0664062 -1.878906 0.171875 -1.785156 0.390625 -1.796875 C 0.609375 -1.816406 0.8125 -1.925781 1 -2.125 C 1.144531 -2.28125 1.234375 -2.4375 1.265625 -2.59375 C 1.304688 -2.75 1.296875 -2.910156 1.234375 -3.078125 L 1.265625 -3.125 L 2 -3.3125 C 2.101562 -3.050781 2.128906 -2.769531 2.078125 -2.46875 C 2.035156 -2.175781 1.875 -1.878906 1.59375 -1.578125 C 1.332031 -1.296875 1.046875 -1.097656 0.734375 -0.984375 C 0.429688 -0.878906 0.125 -0.875 -0.1875 -0.96875 C -0.507812 -1.0625 -0.828125 -1.253906 -1.140625 -1.546875 C -1.453125 -1.835938 -1.660156 -2.140625 -1.765625 -2.453125 C -1.867188 -2.773438 -1.875 -3.085938 -1.78125 -3.390625 C -1.695312 -3.691406 -1.539062 -3.96875 -1.3125 -4.21875 C -0.945312 -4.601562 -0.566406 -4.800781 -0.171875 -4.8125 C 0.222656 -4.832031 0.625 -4.648438 1.03125 -4.265625 C 1.175781 -4.128906 1.285156 -4.019531 1.359375 -3.9375 Z M 0.34375 -3.671875 C 0.125 -3.867188 -0.0703125 -3.96875 -0.25 -3.96875 C -0.4375 -3.96875 -0.613281 -3.878906 -0.78125 -3.703125 C -1.101562 -3.359375 -1.09375 -2.96875 -0.75 -2.53125 Z M 0.34375 -3.671875 "/></g></g></g><g fill="#ffffff" fill-opacity="1"><g transform="translate(134.773488, 112.349578)"><g><path d="M 0.390625 -0.375 L -2.234375 -3.078125 L -1.5625 -3.71875 L -1.171875 -3.3125 L -1.140625 -3.359375 C -1.210938 -3.578125 -1.226562 -3.769531 -1.1875 -3.9375 C -1.144531 -4.113281 -1.046875 -4.28125 -0.890625 -4.4375 C -0.742188 -4.570312 -0.601562 -4.65625 -0.46875 -4.6875 L -0.015625 -3.984375 L -0.046875 -3.921875 C -0.117188 -3.898438 -0.179688 -3.875 -0.234375 -3.84375 C -0.285156 -3.8125 -0.335938 -3.765625 -0.390625 -3.703125 C -0.578125 -3.523438 -0.65625 -3.316406 -0.625 -3.078125 C -0.601562 -2.847656 -0.453125 -2.585938 -0.171875 -2.296875 L 1.0625 -1.03125 Z M 0.390625 -0.375 "/></g></g></g><g fill="#ffffff" fill-opacity="1"><g transform="translate(136.81433, 110.351295)"><g><path d="M 1.9375 -1.71875 L 1.09375 -0.96875 L -2.4375 -2.875 L -1.703125 -3.53125 L 0.78125 -2.140625 L 0.84375 -2.1875 L -0.234375 -4.828125 L 0.484375 -5.46875 Z M 1.9375 -1.71875 "/></g></g></g><g fill="#ffffff" fill-opacity="1"><g transform="translate(139.798887, 107.740276)"><g><path d="M -1.890625 -3.90625 C -2.015625 -3.800781 -2.148438 -3.753906 -2.296875 -3.765625 C -2.441406 -3.785156 -2.566406 -3.859375 -2.671875 -3.984375 C -2.773438 -4.109375 -2.816406 -4.242188 -2.796875 -4.390625 C -2.773438 -4.535156 -2.703125 -4.660156 -2.578125 -4.765625 C -2.484375 -4.835938 -2.390625 -4.882812 -2.296875 -4.90625 C -2.203125 -4.925781 -2.109375 -4.914062 -2.015625 -4.875 C -1.929688 -4.84375 -1.851562 -4.785156 -1.78125 -4.703125 C -1.71875 -4.617188 -1.675781 -4.53125 -1.65625 -4.4375 C -1.632812 -4.34375 -1.644531 -4.25 -1.6875 -4.15625 C -1.726562 -4.0625 -1.796875 -3.976562 -1.890625 -3.90625 Z M 0.421875 -0.34375 L -1.953125 -3.265625 L -1.21875 -3.859375 L 1.15625 -0.9375 Z M 0.421875 -0.34375 "/></g></g></g><g fill="#ffffff" fill-opacity="1"><g transform="translate(141.284352, 106.4961)"><g><path d="M 0.4375 -0.328125 L -1.8125 -3.34375 L -1.078125 -3.890625 L -0.75 -3.453125 L -0.6875 -3.484375 C -0.757812 -3.960938 -0.582031 -4.359375 -0.15625 -4.671875 C 0.1875 -4.929688 0.507812 -5.023438 0.8125 -4.953125 C 1.125 -4.890625 1.414062 -4.679688 1.6875 -4.328125 L 3.15625 -2.359375 L 2.390625 -1.78125 L 1 -3.640625 C 0.84375 -3.847656 0.691406 -3.96875 0.546875 -4 C 0.398438 -4.03125 0.238281 -3.976562 0.0625 -3.84375 C -0.164062 -3.675781 -0.285156 -3.476562 -0.296875 -3.25 C -0.304688 -3.019531 -0.203125 -2.753906 0.015625 -2.453125 L 1.1875 -0.890625 Z M 0.4375 -0.328125 "/></g></g></g><g fill="#ffffff" fill-opacity="1"><g transform="translate(144.728789, 103.929386)"><g><path d="M 2.5 0.25 C 1.976562 0.59375 1.546875 0.769531 1.203125 0.78125 C 0.859375 0.789062 0.597656 0.660156 0.421875 0.390625 C 0.304688 0.222656 0.265625 0.0546875 0.296875 -0.109375 C 0.335938 -0.285156 0.453125 -0.457031 0.640625 -0.625 L 0.59375 -0.6875 C 0.4375 -0.675781 0.304688 -0.695312 0.203125 -0.75 C 0.109375 -0.800781 0.0234375 -0.878906 -0.046875 -0.984375 C -0.210938 -1.234375 -0.160156 -1.507812 0.109375 -1.8125 L 0.0625 -1.875 C -0.164062 -1.863281 -0.367188 -1.898438 -0.546875 -1.984375 C -0.734375 -2.066406 -0.890625 -2.207031 -1.015625 -2.40625 C -1.160156 -2.613281 -1.238281 -2.828125 -1.25 -3.046875 C -1.257812 -3.273438 -1.195312 -3.492188 -1.0625 -3.703125 C -0.9375 -3.921875 -0.742188 -4.117188 -0.484375 -4.296875 C -0.222656 -4.460938 0.015625 -4.550781 0.234375 -4.5625 C 0.222656 -4.769531 0.171875 -4.972656 0.078125 -5.171875 L 0.09375 -5.25 L 0.765625 -5.484375 C 0.847656 -5.328125 0.890625 -5.171875 0.890625 -5.015625 C 0.890625 -4.867188 0.84375 -4.707031 0.75 -4.53125 L 0.796875 -4.46875 C 1.066406 -4.425781 1.289062 -4.265625 1.46875 -3.984375 C 1.601562 -3.796875 1.675781 -3.59375 1.6875 -3.375 C 1.695312 -3.15625 1.632812 -2.9375 1.5 -2.71875 C 1.375 -2.507812 1.1875 -2.320312 0.9375 -2.15625 L 0.8125 -2.078125 C 0.738281 -2.023438 0.6875 -1.988281 0.65625 -1.96875 C 0.582031 -1.914062 0.535156 -1.859375 0.515625 -1.796875 C 0.492188 -1.742188 0.503906 -1.6875 0.546875 -1.625 C 0.585938 -1.550781 0.644531 -1.515625 0.71875 -1.515625 C 0.800781 -1.515625 0.894531 -1.546875 1 -1.609375 L 1.71875 -2.046875 C 2.4375 -2.492188 2.988281 -2.429688 3.375 -1.859375 C 3.5 -1.648438 3.5625 -1.429688 3.5625 -1.203125 C 3.570312 -0.972656 3.488281 -0.734375 3.3125 -0.484375 C 3.144531 -0.242188 2.875 0 2.5 0.25 Z M 0.5625 -2.703125 C 0.707031 -2.796875 0.796875 -2.914062 0.828125 -3.0625 C 0.859375 -3.21875 0.816406 -3.378906 0.703125 -3.546875 C 0.597656 -3.703125 0.472656 -3.796875 0.328125 -3.828125 C 0.179688 -3.859375 0.0351562 -3.828125 -0.109375 -3.734375 C -0.265625 -3.628906 -0.351562 -3.503906 -0.375 -3.359375 C -0.40625 -3.210938 -0.367188 -3.0625 -0.265625 -2.90625 C -0.148438 -2.738281 -0.0234375 -2.632812 0.109375 -2.59375 C 0.253906 -2.5625 0.40625 -2.597656 0.5625 -2.703125 Z M 2.125 -0.328125 C 2.394531 -0.503906 2.566406 -0.671875 2.640625 -0.828125 C 2.710938 -0.984375 2.707031 -1.125 2.625 -1.25 C 2.5625 -1.34375 2.484375 -1.390625 2.390625 -1.390625 C 2.304688 -1.398438 2.1875 -1.363281 2.03125 -1.28125 L 1.40625 -0.890625 C 1.382812 -0.878906 1.363281 -0.863281 1.34375 -0.84375 C 1.320312 -0.832031 1.304688 -0.820312 1.296875 -0.8125 C 1.160156 -0.726562 1.078125 -0.632812 1.046875 -0.53125 C 1.015625 -0.4375 1.03125 -0.335938 1.09375 -0.234375 C 1.1875 -0.0976562 1.316406 -0.0351562 1.484375 -0.046875 C 1.660156 -0.0664062 1.875 -0.160156 2.125 -0.328125 Z M 2.125 -0.328125 "/></g></g></g><g fill="#ffffff" fill-opacity="1"><g transform="translate(147.93638, 101.819062)"><g/></g></g><g fill="#ffffff" fill-opacity="1"><g transform="translate(149.237225, 100.96911)"><g><path d="M 2.15625 -1.109375 C 1.789062 -0.910156 1.429688 -0.820312 1.078125 -0.84375 C 0.722656 -0.863281 0.378906 -1 0.046875 -1.25 C -0.285156 -1.507812 -0.585938 -1.882812 -0.859375 -2.375 C -1.140625 -2.875 -1.285156 -3.335938 -1.296875 -3.765625 C -1.304688 -4.203125 -1.203125 -4.582031 -0.984375 -4.90625 C -0.765625 -5.238281 -0.457031 -5.519531 -0.0625 -5.75 C 0.351562 -5.976562 0.753906 -6.097656 1.140625 -6.109375 C 1.523438 -6.128906 1.863281 -6.019531 2.15625 -5.78125 L 1.71875 -5.046875 L 1.65625 -5 C 1.457031 -5.144531 1.25 -5.21875 1.03125 -5.21875 C 0.820312 -5.21875 0.59375 -5.148438 0.34375 -5.015625 C -0.03125 -4.804688 -0.25 -4.53125 -0.3125 -4.1875 C -0.382812 -3.84375 -0.269531 -3.40625 0.03125 -2.875 C 0.320312 -2.34375 0.625 -2.003906 0.9375 -1.859375 C 1.257812 -1.722656 1.601562 -1.757812 1.96875 -1.96875 C 2.28125 -2.144531 2.472656 -2.347656 2.546875 -2.578125 C 2.617188 -2.804688 2.578125 -3.054688 2.421875 -3.328125 L 2.3125 -3.515625 L 1.28125 -2.9375 L 0.890625 -3.65625 L 2.765625 -4.703125 L 4.109375 -2.28125 L 3.296875 -1.828125 L 2.96875 -2.421875 L 2.890625 -2.375 C 2.929688 -2.125 2.890625 -1.890625 2.765625 -1.671875 C 2.648438 -1.460938 2.445312 -1.273438 2.15625 -1.109375 Z M 2.15625 -1.109375 "/></g></g></g><g fill="#ffffff" fill-opacity="1"><g transform="translate(153.681127, 98.519455)"><g><path d="M 2 -0.859375 C 1.675781 -0.703125 1.351562 -0.632812 1.03125 -0.65625 C 0.707031 -0.6875 0.414062 -0.796875 0.15625 -0.984375 C -0.101562 -1.179688 -0.320312 -1.46875 -0.5 -1.84375 C -0.675781 -2.21875 -0.757812 -2.570312 -0.75 -2.90625 C -0.738281 -3.238281 -0.632812 -3.53125 -0.4375 -3.78125 C -0.25 -4.039062 0.00390625 -4.25 0.328125 -4.40625 C 0.671875 -4.5625 1 -4.628906 1.3125 -4.609375 C 1.625 -4.597656 1.910156 -4.492188 2.171875 -4.296875 C 2.441406 -4.097656 2.664062 -3.8125 2.84375 -3.4375 C 3.019531 -3.0625 3.097656 -2.707031 3.078125 -2.375 C 3.066406 -2.050781 2.96875 -1.753906 2.78125 -1.484375 C 2.601562 -1.222656 2.34375 -1.015625 2 -0.859375 Z M 1.65625 -1.59375 C 2.1875 -1.84375 2.285156 -2.316406 1.953125 -3.015625 C 1.785156 -3.378906 1.597656 -3.609375 1.390625 -3.703125 C 1.179688 -3.804688 0.941406 -3.796875 0.671875 -3.671875 C 0.148438 -3.421875 0.0507812 -2.953125 0.375 -2.265625 C 0.707031 -1.566406 1.132812 -1.34375 1.65625 -1.59375 Z M 1.65625 -1.59375 "/></g></g></g><g fill="#ffffff" fill-opacity="1"><g transform="translate(157.522413, 96.691505)"><g><path d="M 1.75 -0.625 C 1.476562 -0.507812 1.207031 -0.476562 0.9375 -0.53125 C 0.675781 -0.582031 0.425781 -0.71875 0.1875 -0.9375 C -0.0390625 -1.15625 -0.234375 -1.46875 -0.390625 -1.875 C -0.554688 -2.269531 -0.628906 -2.628906 -0.609375 -2.953125 C -0.597656 -3.273438 -0.507812 -3.546875 -0.34375 -3.765625 C -0.175781 -3.992188 0.046875 -4.164062 0.328125 -4.28125 C 0.546875 -4.363281 0.75 -4.398438 0.9375 -4.390625 C 1.132812 -4.378906 1.316406 -4.316406 1.484375 -4.203125 L 1.546875 -4.25 L 0.828125 -6.03125 L 1.6875 -6.375 L 3.671875 -1.484375 L 2.8125 -1.140625 L 2.625 -1.59375 L 2.546875 -1.578125 C 2.515625 -1.367188 2.429688 -1.179688 2.296875 -1.015625 C 2.171875 -0.847656 1.988281 -0.71875 1.75 -0.625 Z M 1.734375 -1.5 C 1.984375 -1.601562 2.144531 -1.769531 2.21875 -2 C 2.289062 -2.226562 2.253906 -2.523438 2.109375 -2.890625 C 1.960938 -3.242188 1.78125 -3.476562 1.5625 -3.59375 C 1.351562 -3.71875 1.125 -3.726562 0.875 -3.625 C 0.613281 -3.519531 0.445312 -3.351562 0.375 -3.125 C 0.3125 -2.90625 0.359375 -2.613281 0.515625 -2.25 C 0.660156 -1.875 0.832031 -1.628906 1.03125 -1.515625 C 1.238281 -1.398438 1.472656 -1.394531 1.734375 -1.5 Z M 1.734375 -1.5 "/></g></g></g><g fill="#ffffff" fill-opacity="1"><g transform="translate(161.638109, 95.055966)"><g/></g></g><g fill="#ffffff" fill-opacity="1"><g transform="translate(163.105115, 94.502577)"><g><path d="M 2.3125 -5.96875 L 2.546875 -5.1875 L 1.171875 -4.75 L 2.4375 -0.765625 L 1.5 -0.46875 L 0.234375 -4.453125 L -1.125 -4.03125 L -1.359375 -4.8125 Z M 2.3125 -5.96875 "/></g></g></g><g fill="#ffffff" fill-opacity="1"><g transform="translate(166.935399, 93.283318)"><g><path d="M 0.53125 -0.140625 L -0.78125 -5.25 L 0.125 -5.484375 L 0.625 -3.546875 L 0.703125 -3.546875 C 0.785156 -3.765625 0.898438 -3.941406 1.046875 -4.078125 C 1.191406 -4.210938 1.394531 -4.316406 1.65625 -4.390625 C 2.457031 -4.585938 2.976562 -4.226562 3.21875 -3.3125 L 3.8125 -0.96875 L 2.890625 -0.734375 L 2.3125 -2.96875 C 2.25 -3.21875 2.15625 -3.382812 2.03125 -3.46875 C 1.90625 -3.5625 1.738281 -3.582031 1.53125 -3.53125 C 1.269531 -3.46875 1.082031 -3.332031 0.96875 -3.125 C 0.863281 -2.914062 0.859375 -2.628906 0.953125 -2.265625 L 1.4375 -0.375 Z M 0.53125 -0.140625 "/></g></g></g><g fill="#ffffff" fill-opacity="1"><g transform="translate(171.114103, 92.230221)"><g><path d="M 0.53125 -0.109375 L -0.21875 -3.796875 L 0.6875 -3.984375 L 0.796875 -3.4375 L 0.859375 -3.453125 C 0.910156 -3.660156 0.992188 -3.828125 1.109375 -3.953125 C 1.234375 -4.078125 1.40625 -4.160156 1.625 -4.203125 C 1.820312 -4.242188 1.988281 -4.242188 2.125 -4.203125 L 2.125 -3.375 L 2.046875 -3.34375 C 1.992188 -3.351562 1.9375 -3.359375 1.875 -3.359375 C 1.8125 -3.359375 1.738281 -3.351562 1.65625 -3.34375 C 1.40625 -3.28125 1.226562 -3.144531 1.125 -2.9375 C 1.019531 -2.726562 1.007812 -2.425781 1.09375 -2.03125 L 1.453125 -0.296875 Z M 0.53125 -0.109375 "/></g></g></g><g fill="#ffffff" fill-opacity="1"><g transform="translate(173.903245, 91.63817)"><g><path d="M 2.171875 -0.25 C 1.816406 -0.195312 1.484375 -0.226562 1.171875 -0.34375 C 0.867188 -0.457031 0.625 -0.644531 0.4375 -0.90625 C 0.25 -1.164062 0.117188 -1.503906 0.046875 -1.921875 C -0.015625 -2.316406 0.00390625 -2.671875 0.109375 -2.984375 C 0.210938 -3.304688 0.390625 -3.5625 0.640625 -3.75 C 0.898438 -3.945312 1.207031 -4.070312 1.5625 -4.125 C 1.9375 -4.1875 2.269531 -4.160156 2.5625 -4.046875 C 2.863281 -3.941406 3.113281 -3.753906 3.3125 -3.484375 C 3.507812 -3.222656 3.640625 -2.894531 3.703125 -2.5 C 3.773438 -2.082031 3.753906 -1.71875 3.640625 -1.40625 C 3.523438 -1.09375 3.34375 -0.835938 3.09375 -0.640625 C 2.851562 -0.441406 2.546875 -0.3125 2.171875 -0.25 Z M 2.046875 -1.046875 C 2.628906 -1.140625 2.859375 -1.570312 2.734375 -2.34375 C 2.679688 -2.726562 2.566406 -3 2.390625 -3.15625 C 2.210938 -3.320312 1.976562 -3.378906 1.6875 -3.328125 C 1.113281 -3.242188 0.882812 -2.828125 1 -2.078125 C 1.125 -1.304688 1.472656 -0.960938 2.046875 -1.046875 Z M 2.046875 -1.046875 "/></g></g></g><g fill="#ffffff" fill-opacity="1"><g transform="translate(178.108455, 90.981494)"><g><path d="M 1.703125 -0.09375 C 1.296875 -0.0507812 0.976562 -0.132812 0.75 -0.34375 C 0.53125 -0.5625 0.398438 -0.882812 0.359375 -1.3125 L 0.125 -3.796875 L 1.078125 -3.890625 L 1.296875 -1.53125 C 1.328125 -1.300781 1.390625 -1.140625 1.484375 -1.046875 C 1.585938 -0.953125 1.742188 -0.914062 1.953125 -0.9375 C 2.210938 -0.957031 2.40625 -1.0625 2.53125 -1.25 C 2.664062 -1.4375 2.71875 -1.707031 2.6875 -2.0625 L 2.5 -4.03125 L 3.4375 -4.125 L 3.796875 -0.375 L 2.890625 -0.28125 L 2.84375 -0.828125 L 2.765625 -0.859375 C 2.660156 -0.617188 2.523438 -0.4375 2.359375 -0.3125 C 2.203125 -0.1875 1.984375 -0.113281 1.703125 -0.09375 Z M 1.703125 -0.09375 "/></g></g></g><g fill="#ffffff" fill-opacity="1"><g transform="translate(182.330834, 90.573519)"><g><path d="M 2.015625 1.515625 C 1.390625 1.535156 0.925781 1.460938 0.625 1.296875 C 0.332031 1.128906 0.179688 0.882812 0.171875 0.5625 C 0.160156 0.363281 0.210938 0.195312 0.328125 0.0625 C 0.453125 -0.0625 0.632812 -0.148438 0.875 -0.203125 L 0.859375 -0.28125 C 0.722656 -0.351562 0.625 -0.4375 0.5625 -0.53125 C 0.507812 -0.625 0.484375 -0.734375 0.484375 -0.859375 C 0.460938 -1.160156 0.644531 -1.375 1.03125 -1.5 L 1.03125 -1.5625 C 0.820312 -1.675781 0.660156 -1.816406 0.546875 -1.984375 C 0.441406 -2.148438 0.382812 -2.351562 0.375 -2.59375 C 0.363281 -2.84375 0.410156 -3.066406 0.515625 -3.265625 C 0.617188 -3.460938 0.78125 -3.617188 1 -3.734375 C 1.21875 -3.847656 1.484375 -3.910156 1.796875 -3.921875 C 2.109375 -3.941406 2.363281 -3.894531 2.5625 -3.78125 C 2.664062 -3.96875 2.722656 -4.171875 2.734375 -4.390625 L 2.796875 -4.4375 L 3.5 -4.296875 C 3.476562 -4.117188 3.425781 -3.960938 3.34375 -3.828125 C 3.269531 -3.703125 3.148438 -3.59375 2.984375 -3.5 L 2.984375 -3.421875 C 3.203125 -3.234375 3.316406 -2.972656 3.328125 -2.640625 C 3.335938 -2.410156 3.289062 -2.195312 3.1875 -2 C 3.082031 -1.8125 2.914062 -1.660156 2.6875 -1.546875 C 2.46875 -1.441406 2.207031 -1.378906 1.90625 -1.359375 L 1.765625 -1.359375 C 1.671875 -1.359375 1.601562 -1.351562 1.5625 -1.34375 C 1.476562 -1.34375 1.414062 -1.320312 1.375 -1.28125 C 1.332031 -1.238281 1.3125 -1.179688 1.3125 -1.109375 C 1.3125 -1.023438 1.34375 -0.957031 1.40625 -0.90625 C 1.476562 -0.863281 1.578125 -0.847656 1.703125 -0.859375 L 2.546875 -0.859375 C 3.378906 -0.867188 3.8125 -0.523438 3.84375 0.171875 C 3.851562 0.410156 3.796875 0.628906 3.671875 0.828125 C 3.554688 1.023438 3.363281 1.179688 3.09375 1.296875 C 2.820312 1.421875 2.460938 1.492188 2.015625 1.515625 Z M 1.890625 -2.015625 C 2.066406 -2.023438 2.203125 -2.085938 2.296875 -2.203125 C 2.398438 -2.316406 2.445312 -2.472656 2.4375 -2.671875 C 2.425781 -2.867188 2.363281 -3.015625 2.25 -3.109375 C 2.144531 -3.210938 2.003906 -3.257812 1.828125 -3.25 C 1.640625 -3.25 1.5 -3.191406 1.40625 -3.078125 C 1.3125 -2.972656 1.269531 -2.820312 1.28125 -2.625 C 1.289062 -2.425781 1.347656 -2.273438 1.453125 -2.171875 C 1.554688 -2.066406 1.703125 -2.015625 1.890625 -2.015625 Z M 1.984375 0.828125 C 2.304688 0.804688 2.539062 0.75 2.6875 0.65625 C 2.832031 0.5625 2.898438 0.441406 2.890625 0.296875 C 2.890625 0.179688 2.847656 0.0976562 2.765625 0.046875 C 2.691406 -0.00390625 2.570312 -0.0351562 2.40625 -0.046875 L 1.671875 -0.046875 C 1.640625 -0.0351562 1.613281 -0.03125 1.59375 -0.03125 C 1.570312 -0.03125 1.550781 -0.03125 1.53125 -0.03125 C 1.375 -0.03125 1.253906 0.00390625 1.171875 0.078125 C 1.097656 0.148438 1.0625 0.242188 1.0625 0.359375 C 1.070312 0.523438 1.148438 0.644531 1.296875 0.71875 C 1.453125 0.800781 1.679688 0.835938 1.984375 0.828125 Z M 1.984375 0.828125 "/></g></g></g><g fill="#ffffff" fill-opacity="1"><g transform="translate(186.127608, 90.400729)"><g><path d="M 0.546875 0 L 0.609375 -5.28125 L 1.546875 -5.265625 L 1.515625 -3.265625 L 1.59375 -3.25 C 1.726562 -3.4375 1.882812 -3.578125 2.0625 -3.671875 C 2.25 -3.765625 2.472656 -3.8125 2.734375 -3.8125 C 3.566406 -3.800781 3.976562 -3.320312 3.96875 -2.375 L 3.9375 0.046875 L 2.984375 0.03125 L 3.015625 -2.28125 C 3.015625 -2.53125 2.960938 -2.710938 2.859375 -2.828125 C 2.753906 -2.953125 2.597656 -3.015625 2.390625 -3.015625 C 2.117188 -3.023438 1.90625 -2.941406 1.75 -2.765625 C 1.59375 -2.585938 1.507812 -2.3125 1.5 -1.9375 L 1.484375 0.015625 Z M 0.546875 0 "/></g></g></g><g fill="#ffffff" fill-opacity="1"><g transform="translate(190.454868, 90.477029)"><g/></g></g><g fill="#ffffff" fill-opacity="1"><g transform="translate(192.019688, 90.530385)"><g><path d="M 2.203125 0.28125 C 1.867188 0.25 1.566406 0.175781 1.296875 0.0625 C 1.035156 -0.0507812 0.820312 -0.1875 0.65625 -0.34375 C 0.488281 -0.5 0.363281 -0.660156 0.28125 -0.828125 L 0.890625 -1.453125 L 0.96875 -1.4375 C 1.101562 -1.195312 1.28125 -1 1.5 -0.84375 C 1.71875 -0.695312 1.976562 -0.609375 2.28125 -0.578125 C 2.539062 -0.554688 2.738281 -0.597656 2.875 -0.703125 C 3.019531 -0.804688 3.101562 -0.953125 3.125 -1.140625 C 3.132812 -1.265625 3.125 -1.363281 3.09375 -1.4375 C 3.0625 -1.519531 2.992188 -1.59375 2.890625 -1.65625 C 2.796875 -1.71875 2.664062 -1.78125 2.5 -1.84375 L 1.890625 -2.03125 C 1.453125 -2.175781 1.132812 -2.378906 0.9375 -2.640625 C 0.738281 -2.898438 0.65625 -3.21875 0.6875 -3.59375 C 0.71875 -3.882812 0.8125 -4.128906 0.96875 -4.328125 C 1.125 -4.523438 1.34375 -4.671875 1.625 -4.765625 C 1.90625 -4.859375 2.226562 -4.890625 2.59375 -4.859375 C 2.976562 -4.816406 3.300781 -4.734375 3.5625 -4.609375 C 3.832031 -4.492188 4.050781 -4.320312 4.21875 -4.09375 L 3.671875 -3.46875 L 3.59375 -3.46875 C 3.457031 -3.625 3.300781 -3.75 3.125 -3.84375 C 2.945312 -3.9375 2.742188 -3.992188 2.515625 -4.015625 C 2.253906 -4.035156 2.046875 -4.003906 1.890625 -3.921875 C 1.742188 -3.835938 1.660156 -3.710938 1.640625 -3.546875 C 1.628906 -3.390625 1.664062 -3.257812 1.75 -3.15625 C 1.84375 -3.0625 2.007812 -2.976562 2.25 -2.90625 L 2.890625 -2.703125 C 3.359375 -2.554688 3.691406 -2.347656 3.890625 -2.078125 C 4.085938 -1.816406 4.164062 -1.492188 4.125 -1.109375 C 4.101562 -0.796875 4.015625 -0.53125 3.859375 -0.3125 C 3.710938 -0.09375 3.5 0.0664062 3.21875 0.171875 C 2.9375 0.273438 2.597656 0.3125 2.203125 0.28125 Z M 2.203125 0.28125 "/></g></g></g><g fill="#ffffff" fill-opacity="1"><g transform="translate(196.174981, 90.905721)"><g><path d="M 3.90625 -1.125 L 1.515625 -1.46875 C 1.503906 -1.132812 1.566406 -0.882812 1.703125 -0.71875 C 1.847656 -0.550781 2.050781 -0.445312 2.3125 -0.40625 C 2.53125 -0.375 2.710938 -0.382812 2.859375 -0.4375 C 3.003906 -0.5 3.128906 -0.601562 3.234375 -0.75 L 3.296875 -0.75 L 3.859375 -0.25 C 3.710938 -0.0195312 3.5 0.15625 3.21875 0.28125 C 2.945312 0.414062 2.601562 0.457031 2.1875 0.40625 C 1.8125 0.34375 1.488281 0.210938 1.21875 0.015625 C 0.957031 -0.171875 0.773438 -0.414062 0.671875 -0.71875 C 0.578125 -1.03125 0.5625 -1.398438 0.625 -1.828125 C 0.675781 -2.242188 0.800781 -2.582031 1 -2.84375 C 1.207031 -3.113281 1.457031 -3.300781 1.75 -3.40625 C 2.050781 -3.507812 2.375 -3.535156 2.71875 -3.484375 C 3.238281 -3.410156 3.613281 -3.210938 3.84375 -2.890625 C 4.082031 -2.578125 4.160156 -2.148438 4.078125 -1.609375 C 4.046875 -1.410156 4.019531 -1.257812 4 -1.15625 Z M 3.203125 -1.828125 C 3.242188 -2.117188 3.210938 -2.335938 3.109375 -2.484375 C 3.003906 -2.640625 2.835938 -2.734375 2.609375 -2.765625 C 2.128906 -2.835938 1.804688 -2.601562 1.640625 -2.0625 Z M 3.203125 -1.828125 "/></g></g></g><g fill="#ffffff" fill-opacity="1"><g transform="translate(200.127551, 91.494237)"><g><path d="M 0.53125 0.109375 L 1.25 -3.59375 L 2.15625 -3.421875 L 2.046875 -2.859375 L 2.109375 -2.84375 C 2.242188 -3.039062 2.390625 -3.171875 2.546875 -3.234375 C 2.710938 -3.296875 2.898438 -3.304688 3.109375 -3.265625 C 3.316406 -3.234375 3.472656 -3.164062 3.578125 -3.0625 L 3.265625 -2.296875 L 3.1875 -2.296875 C 3.125 -2.335938 3.066406 -2.367188 3.015625 -2.390625 C 2.960938 -2.421875 2.894531 -2.441406 2.8125 -2.453125 C 2.5625 -2.503906 2.347656 -2.445312 2.171875 -2.28125 C 1.992188 -2.125 1.863281 -1.847656 1.78125 -1.453125 L 1.453125 0.28125 Z M 0.53125 0.109375 "/></g></g></g><g fill="#ffffff" fill-opacity="1"><g transform="translate(202.933971, 92.022923)"><g><path d="M 2.515625 0.609375 L 1.421875 0.34375 L 0.96875 -3.640625 L 1.921875 -3.40625 L 2.1875 -0.578125 L 2.265625 -0.5625 L 3.828125 -2.953125 L 4.765625 -2.71875 Z M 2.515625 0.609375 "/></g></g></g><g fill="#ffffff" fill-opacity="1"><g transform="translate(206.784116, 92.972435)"><g><path d="M 2.140625 -3.78125 C 1.972656 -3.832031 1.847656 -3.921875 1.765625 -4.046875 C 1.691406 -4.171875 1.679688 -4.3125 1.734375 -4.46875 C 1.773438 -4.625 1.859375 -4.738281 1.984375 -4.8125 C 2.117188 -4.882812 2.269531 -4.894531 2.4375 -4.84375 C 2.539062 -4.8125 2.628906 -4.757812 2.703125 -4.6875 C 2.773438 -4.625 2.820312 -4.546875 2.84375 -4.453125 C 2.863281 -4.359375 2.863281 -4.257812 2.84375 -4.15625 C 2.8125 -4.0625 2.757812 -3.976562 2.6875 -3.90625 C 2.613281 -3.832031 2.53125 -3.785156 2.4375 -3.765625 C 2.34375 -3.742188 2.242188 -3.75 2.140625 -3.78125 Z M 0.53125 0.15625 L 1.5625 -3.46875 L 2.453125 -3.21875 L 1.421875 0.40625 Z M 0.53125 0.15625 "/></g></g></g><g fill="#ffffff" fill-opacity="1"><g transform="translate(208.655488, 93.47581)"><g><path d="M 0.515625 0.171875 L 1.703125 -3.40625 L 2.5625 -3.125 L 2.390625 -2.609375 L 2.453125 -2.5625 C 2.804688 -2.894531 3.234375 -2.976562 3.734375 -2.8125 C 4.140625 -2.675781 4.40625 -2.460938 4.53125 -2.171875 C 4.65625 -1.878906 4.644531 -1.519531 4.5 -1.09375 L 3.734375 1.234375 L 2.828125 0.9375 L 3.5625 -1.265625 C 3.632812 -1.503906 3.640625 -1.691406 3.578125 -1.828125 C 3.523438 -1.972656 3.394531 -2.082031 3.1875 -2.15625 C 2.925781 -2.238281 2.695312 -2.21875 2.5 -2.09375 C 2.300781 -1.976562 2.140625 -1.742188 2.015625 -1.390625 L 1.40625 0.46875 Z M 0.515625 0.171875 "/></g></g></g><g fill="#ffffff" fill-opacity="1"><g transform="translate(212.733581, 94.826171)"><g><path d="M 1.234375 2.203125 C 0.660156 1.972656 0.269531 1.71875 0.0625 1.4375 C -0.144531 1.15625 -0.191406 0.867188 -0.078125 0.578125 C -0.00390625 0.390625 0.113281 0.257812 0.28125 0.1875 C 0.445312 0.113281 0.644531 0.101562 0.875 0.15625 L 0.90625 0.078125 C 0.800781 -0.0234375 0.742188 -0.132812 0.734375 -0.25 C 0.722656 -0.363281 0.742188 -0.476562 0.796875 -0.59375 C 0.898438 -0.875 1.148438 -0.992188 1.546875 -0.953125 L 1.5625 -1 C 1.425781 -1.1875 1.34375 -1.378906 1.3125 -1.578125 C 1.28125 -1.785156 1.304688 -2.003906 1.390625 -2.234375 C 1.484375 -2.460938 1.613281 -2.644531 1.78125 -2.78125 C 1.957031 -2.914062 2.171875 -2.988281 2.421875 -3 C 2.671875 -3.019531 2.941406 -2.972656 3.234375 -2.859375 C 3.523438 -2.742188 3.738281 -2.597656 3.875 -2.421875 C 4.039062 -2.546875 4.175781 -2.707031 4.28125 -2.90625 L 4.359375 -2.921875 L 4.9375 -2.515625 C 4.851562 -2.359375 4.75 -2.238281 4.625 -2.15625 C 4.5 -2.070312 4.332031 -2.015625 4.125 -1.984375 L 4.109375 -1.921875 C 4.234375 -1.671875 4.234375 -1.390625 4.109375 -1.078125 C 4.023438 -0.859375 3.894531 -0.679688 3.71875 -0.546875 C 3.539062 -0.421875 3.328125 -0.347656 3.078125 -0.328125 C 2.835938 -0.304688 2.578125 -0.351562 2.296875 -0.46875 L 2.171875 -0.515625 C 2.085938 -0.554688 2.023438 -0.582031 1.984375 -0.59375 C 1.898438 -0.625 1.828125 -0.628906 1.765625 -0.609375 C 1.710938 -0.585938 1.671875 -0.539062 1.640625 -0.46875 C 1.617188 -0.394531 1.625 -0.328125 1.65625 -0.265625 C 1.695312 -0.203125 1.773438 -0.144531 1.890625 -0.09375 L 2.6875 0.234375 C 3.445312 0.554688 3.695312 1.046875 3.4375 1.703125 C 3.351562 1.921875 3.21875 2.097656 3.03125 2.234375 C 2.84375 2.367188 2.597656 2.4375 2.296875 2.4375 C 2.003906 2.4375 1.648438 2.359375 1.234375 2.203125 Z M 2.53125 -1.078125 C 2.695312 -1.015625 2.847656 -1.015625 2.984375 -1.078125 C 3.128906 -1.148438 3.238281 -1.28125 3.3125 -1.46875 C 3.382812 -1.644531 3.390625 -1.800781 3.328125 -1.9375 C 3.265625 -2.070312 3.148438 -2.171875 2.984375 -2.234375 C 2.816406 -2.304688 2.664062 -2.3125 2.53125 -2.25 C 2.40625 -2.1875 2.304688 -2.066406 2.234375 -1.890625 C 2.160156 -1.703125 2.148438 -1.535156 2.203125 -1.390625 C 2.253906 -1.253906 2.363281 -1.148438 2.53125 -1.078125 Z M 1.484375 1.5625 C 1.785156 1.675781 2.019531 1.71875 2.1875 1.6875 C 2.351562 1.65625 2.460938 1.570312 2.515625 1.4375 C 2.554688 1.332031 2.550781 1.238281 2.5 1.15625 C 2.457031 1.082031 2.363281 1.007812 2.21875 0.9375 L 1.546875 0.640625 C 1.515625 0.628906 1.488281 0.617188 1.46875 0.609375 C 1.445312 0.609375 1.425781 0.601562 1.40625 0.59375 C 1.257812 0.53125 1.132812 0.515625 1.03125 0.546875 C 0.9375 0.578125 0.867188 0.644531 0.828125 0.75 C 0.765625 0.90625 0.785156 1.050781 0.890625 1.1875 C 1.003906 1.320312 1.203125 1.445312 1.484375 1.5625 Z M 1.484375 1.5625 "/></g></g></g><g fill="#ffffff" fill-opacity="1"><g transform="translate(216.3012, 96.245399)"><g/></g></g><g fill="#ffffff" fill-opacity="1"><g transform="translate(217.740157, 96.820484)"><g><path d="M 4.859375 -1.09375 L 5.6875 -2.78125 L 6.5625 -2.34375 L 4.359375 2.140625 L 3.484375 1.703125 L 4.484375 -0.34375 L 2.46875 -1.328125 L 1.46875 0.71875 L 0.59375 0.296875 L 2.796875 -4.1875 L 3.671875 -3.765625 L 2.84375 -2.078125 Z M 4.859375 -1.09375 "/></g></g></g><g fill="#ffffff" fill-opacity="1"><g transform="translate(222.571544, 99.240387)"><g><path d="M 2.9375 -3.1875 C 2.789062 -3.269531 2.691406 -3.382812 2.640625 -3.53125 C 2.597656 -3.675781 2.613281 -3.820312 2.6875 -3.96875 C 2.769531 -4.101562 2.882812 -4.1875 3.03125 -4.21875 C 3.175781 -4.257812 3.320312 -4.238281 3.46875 -4.15625 C 3.5625 -4.101562 3.632812 -4.035156 3.6875 -3.953125 C 3.75 -3.867188 3.78125 -3.78125 3.78125 -3.6875 C 3.78125 -3.59375 3.753906 -3.503906 3.703125 -3.421875 C 3.660156 -3.328125 3.59375 -3.25 3.5 -3.1875 C 3.414062 -3.132812 3.320312 -3.109375 3.21875 -3.109375 C 3.125 -3.109375 3.03125 -3.132812 2.9375 -3.1875 Z M 0.484375 0.265625 L 2.3125 -3.03125 L 3.125 -2.578125 L 1.296875 0.71875 Z M 0.484375 0.265625 "/></g></g></g><g fill="#ffffff" fill-opacity="1"><g transform="translate(224.284981, 100.172888)"><g><path d="M 1.46875 0.96875 C 1.238281 0.832031 1.050781 0.679688 0.90625 0.515625 C 0.757812 0.359375 0.644531 0.195312 0.5625 0.03125 C 0.488281 -0.132812 0.457031 -0.289062 0.46875 -0.4375 L 1.234375 -0.671875 L 1.28125 -0.640625 C 1.289062 -0.429688 1.347656 -0.242188 1.453125 -0.078125 C 1.566406 0.0859375 1.707031 0.21875 1.875 0.3125 C 2.03125 0.414062 2.164062 0.460938 2.28125 0.453125 C 2.394531 0.441406 2.488281 0.382812 2.5625 0.28125 C 2.601562 0.195312 2.609375 0.109375 2.578125 0.015625 C 2.554688 -0.078125 2.492188 -0.175781 2.390625 -0.28125 L 2.03125 -0.640625 C 1.75 -0.898438 1.582031 -1.148438 1.53125 -1.390625 C 1.476562 -1.640625 1.523438 -1.890625 1.671875 -2.140625 C 1.796875 -2.335938 1.953125 -2.476562 2.140625 -2.5625 C 2.335938 -2.644531 2.550781 -2.671875 2.78125 -2.640625 C 3.019531 -2.617188 3.257812 -2.535156 3.5 -2.390625 C 3.789062 -2.210938 4.003906 -2.019531 4.140625 -1.8125 C 4.285156 -1.601562 4.367188 -1.398438 4.390625 -1.203125 L 3.671875 -1 L 3.609375 -1.03125 C 3.585938 -1.195312 3.53125 -1.332031 3.4375 -1.4375 C 3.351562 -1.550781 3.242188 -1.65625 3.109375 -1.75 C 2.785156 -1.9375 2.566406 -1.929688 2.453125 -1.734375 C 2.398438 -1.640625 2.390625 -1.550781 2.421875 -1.46875 C 2.453125 -1.382812 2.535156 -1.273438 2.671875 -1.140625 L 2.984375 -0.8125 C 3.285156 -0.550781 3.460938 -0.296875 3.515625 -0.046875 C 3.578125 0.191406 3.523438 0.441406 3.359375 0.703125 C 3.234375 0.910156 3.070312 1.0625 2.875 1.15625 C 2.675781 1.25 2.457031 1.28125 2.21875 1.25 C 1.976562 1.21875 1.726562 1.125 1.46875 0.96875 Z M 1.46875 0.96875 "/></g></g></g><g fill="#ffffff" fill-opacity="1"><g transform="translate(227.191565, 101.93986)"><g/></g></g><g fill="#ffffff" fill-opacity="1"><g transform="translate(228.517906, 102.766038)"><g><path d="M 5 -2.59375 C 5.289062 -2.375 5.5 -2.140625 5.625 -1.890625 C 5.757812 -1.648438 5.8125 -1.390625 5.78125 -1.109375 C 5.75 -0.835938 5.644531 -0.578125 5.46875 -0.328125 C 5.28125 -0.0664062 5.0625 0.117188 4.8125 0.234375 C 4.570312 0.347656 4.3125 0.382812 4.03125 0.34375 C 3.757812 0.3125 3.476562 0.1875 3.1875 -0.03125 L 2.421875 -0.5625 L 1.34375 0.953125 L 0.53125 0.375 L 3.421875 -3.703125 Z M 3.53125 -0.734375 C 3.976562 -0.421875 4.351562 -0.476562 4.65625 -0.90625 C 4.957031 -1.332031 4.882812 -1.703125 4.4375 -2.015625 L 3.78125 -2.484375 L 2.875 -1.203125 Z M 3.53125 -0.734375 "/></g></g></g><g fill="#ffffff" fill-opacity="1"><g transform="translate(232.14049, 105.335617)"><g><path d="M 3.953125 1 L 2.0625 -0.5 C 1.875 -0.21875 1.796875 0.0234375 1.828125 0.234375 C 1.859375 0.453125 1.984375 0.644531 2.203125 0.8125 C 2.367188 0.945312 2.53125 1.023438 2.6875 1.046875 C 2.851562 1.078125 3.019531 1.050781 3.1875 0.96875 L 3.234375 1.015625 L 3.453125 1.71875 C 3.210938 1.851562 2.941406 1.90625 2.640625 1.875 C 2.335938 1.851562 2.023438 1.710938 1.703125 1.453125 C 1.398438 1.210938 1.179688 0.941406 1.046875 0.640625 C 0.921875 0.347656 0.890625 0.0390625 0.953125 -0.28125 C 1.015625 -0.601562 1.175781 -0.929688 1.4375 -1.265625 C 1.707031 -1.597656 1.992188 -1.828125 2.296875 -1.953125 C 2.609375 -2.078125 2.914062 -2.109375 3.21875 -2.046875 C 3.53125 -1.992188 3.820312 -1.859375 4.09375 -1.640625 C 4.507812 -1.316406 4.738281 -0.957031 4.78125 -0.5625 C 4.832031 -0.164062 4.6875 0.242188 4.34375 0.671875 C 4.21875 0.828125 4.117188 0.945312 4.046875 1.03125 Z M 3.6875 0.03125 C 3.863281 -0.195312 3.945312 -0.398438 3.9375 -0.578125 C 3.925781 -0.765625 3.828125 -0.929688 3.640625 -1.078125 C 3.265625 -1.378906 2.867188 -1.335938 2.453125 -0.953125 Z M 3.6875 0.03125 "/></g></g></g><g fill="#ffffff" fill-opacity="1"><g transform="translate(235.253854, 107.809326)"><g><path d="M 1.578125 1.515625 C 1.304688 1.273438 1.117188 1 1.015625 0.6875 C 0.910156 0.382812 0.894531 0.078125 0.96875 -0.234375 C 1.050781 -0.546875 1.234375 -0.859375 1.515625 -1.171875 C 1.785156 -1.472656 2.070312 -1.6875 2.375 -1.8125 C 2.6875 -1.9375 3 -1.960938 3.3125 -1.890625 C 3.625 -1.816406 3.914062 -1.660156 4.1875 -1.421875 C 4.46875 -1.171875 4.660156 -0.894531 4.765625 -0.59375 C 4.867188 -0.300781 4.878906 0.00390625 4.796875 0.328125 C 4.722656 0.660156 4.550781 0.976562 4.28125 1.28125 C 4 1.59375 3.703125 1.800781 3.390625 1.90625 C 3.085938 2.019531 2.78125 2.046875 2.46875 1.984375 C 2.15625 1.921875 1.859375 1.765625 1.578125 1.515625 Z M 2.109375 0.90625 C 2.546875 1.300781 3.023438 1.210938 3.546875 0.640625 C 3.804688 0.335938 3.941406 0.0703125 3.953125 -0.15625 C 3.960938 -0.394531 3.859375 -0.613281 3.640625 -0.8125 C 3.210938 -1.195312 2.75 -1.101562 2.25 -0.53125 C 1.726562 0.0390625 1.679688 0.519531 2.109375 0.90625 Z M 2.109375 0.90625 "/></g></g></g><g fill="#ffffff" fill-opacity="1"><g transform="translate(238.432068, 110.636441)"><g><path d="M -0.6875 1.46875 L 3.0625 -2.265625 L 3.71875 -1.609375 L 3.375 -1.265625 L 3.421875 -1.203125 C 3.628906 -1.242188 3.832031 -1.234375 4.03125 -1.171875 C 4.238281 -1.117188 4.429688 -1.003906 4.609375 -0.828125 C 4.816406 -0.609375 4.945312 -0.367188 5 -0.109375 C 5.0625 0.148438 5.035156 0.429688 4.921875 0.734375 C 4.804688 1.035156 4.597656 1.335938 4.296875 1.640625 C 3.984375 1.941406 3.675781 2.144531 3.375 2.25 C 3.070312 2.363281 2.78125 2.390625 2.5 2.328125 C 2.226562 2.265625 1.988281 2.125 1.78125 1.90625 C 1.613281 1.738281 1.5 1.5625 1.4375 1.375 C 1.375 1.195312 1.359375 1.015625 1.390625 0.828125 L 1.328125 0.765625 L -0.03125 2.125 Z M 2.171875 1.140625 C 2.367188 1.335938 2.582031 1.421875 2.8125 1.390625 C 3.050781 1.367188 3.316406 1.21875 3.609375 0.9375 C 3.890625 0.65625 4.039062 0.394531 4.0625 0.15625 C 4.082031 -0.0703125 3.992188 -0.285156 3.796875 -0.484375 C 3.609375 -0.671875 3.394531 -0.753906 3.15625 -0.734375 C 2.914062 -0.710938 2.660156 -0.5625 2.390625 -0.28125 C 2.109375 -0.0078125 1.953125 0.242188 1.921875 0.484375 C 1.898438 0.734375 1.984375 0.953125 2.171875 1.140625 Z M 2.171875 1.140625 "/></g></g></g><g fill="#ffffff" fill-opacity="1"><g transform="translate(241.534555, 113.782824)"><g><path d="M 0.984375 1.203125 C 0.765625 0.953125 0.660156 0.695312 0.671875 0.4375 C 0.691406 0.175781 0.835938 -0.078125 1.109375 -0.328125 L 4.25 -3.1875 L 4.890625 -2.484375 L 1.78125 0.34375 C 1.613281 0.5 1.597656 0.648438 1.734375 0.796875 C 1.765625 0.828125 1.804688 0.863281 1.859375 0.90625 L 1.875 0.953125 L 1.40625 1.5 C 1.351562 1.488281 1.285156 1.453125 1.203125 1.390625 C 1.128906 1.335938 1.054688 1.273438 0.984375 1.203125 Z M 0.984375 1.203125 "/></g></g></g><g fill="#ffffff" fill-opacity="1"><g transform="translate(242.951613, 115.301145)"><g><path d="M 3.671875 1.765625 L 2.109375 -0.078125 C 1.867188 0.160156 1.742188 0.390625 1.734375 0.609375 C 1.734375 0.828125 1.820312 1.035156 2 1.234375 C 2.144531 1.410156 2.285156 1.519531 2.421875 1.5625 C 2.566406 1.613281 2.734375 1.625 2.921875 1.59375 L 2.96875 1.640625 L 3.0625 2.375 C 2.789062 2.457031 2.507812 2.453125 2.21875 2.359375 C 1.925781 2.273438 1.644531 2.070312 1.375 1.75 C 1.125 1.457031 0.960938 1.15625 0.890625 0.84375 C 0.828125 0.53125 0.859375 0.222656 0.984375 -0.078125 C 1.109375 -0.378906 1.335938 -0.671875 1.671875 -0.953125 C 1.992188 -1.222656 2.316406 -1.390625 2.640625 -1.453125 C 2.972656 -1.515625 3.28125 -1.488281 3.5625 -1.375 C 3.851562 -1.257812 4.109375 -1.070312 4.328125 -0.8125 C 4.671875 -0.40625 4.828125 -0.00390625 4.796875 0.390625 C 4.765625 0.785156 4.535156 1.164062 4.109375 1.53125 C 3.960938 1.65625 3.84375 1.742188 3.75 1.796875 Z M 3.625 0.75 C 3.84375 0.5625 3.957031 0.378906 3.96875 0.203125 C 3.988281 0.0234375 3.921875 -0.15625 3.765625 -0.34375 C 3.460938 -0.707031 3.078125 -0.742188 2.609375 -0.453125 Z M 3.625 0.75 "/></g></g></g></svg>